<mxfile host="app.diagrams.net" modified="2022-07-22T07:17:29.346Z" agent="5.0 (Windows NT 10.0; WOW64) AppleWebKit/537.36 (KHTML, like Gecko) Chrome/98.0.4758.102 Safari/537.36" etag="1O8Qch9vk9wAx8Vosu1X" version="20.0.4" type="github">
  <diagram id="HOxKXjVEEQHuZbr7ICWv" name="Page-1">
    <mxGraphModel dx="1038" dy="539" grid="1" gridSize="10" guides="1" tooltips="1" connect="1" arrows="1" fold="1" page="1" pageScale="1" pageWidth="827" pageHeight="1169" math="0" shadow="0">
      <root>
        <mxCell id="0" />
        <mxCell id="1" parent="0" />
        <mxCell id="X9wH3CNpNNGaRG8ekS3V-3" value="" style="rounded=0;whiteSpace=wrap;html=1;" vertex="1" parent="1">
          <mxGeometry x="180" y="190" width="320" height="40" as="geometry" />
        </mxCell>
        <mxCell id="X9wH3CNpNNGaRG8ekS3V-4" value="主诉：男，35岁，最近手举不起来" style="rounded=0;whiteSpace=wrap;html=1;" vertex="1" parent="1">
          <mxGeometry x="190" y="20" width="320" height="40" as="geometry" />
        </mxCell>
        <mxCell id="X9wH3CNpNNGaRG8ekS3V-5" value="症状，病史，年龄，用药史识别" style="rhombus;whiteSpace=wrap;html=1;" vertex="1" parent="1">
          <mxGeometry x="200" y="100" width="280" height="60" as="geometry" />
        </mxCell>
      </root>
    </mxGraphModel>
  </diagram>
</mxfile>
